name C:\Users\u0101727\Documents\MyRepositories\upper-imu-dc\Results\main_tracking\Case_46\FLX02_orientations_groundFrame.mot
datacolumns 13
datarows 25
range 5.38000000 5.62000000
endheader 
time	radius_imu_[0][0]	radius_imu_[0][1]	radius_imu_[0][2]	radius_imu_[1][0]	radius_imu_[1][1]	radius_imu_[1][2]	radius_imu_[2][0]	radius_imu_[2][1]	radius_imu_[2][2]	radius_imu_x	radius_imu_y	radius_imu_z	
          5.38000000	          0.45668955	         -0.87288570	          0.17177078	         -0.58732617	         -0.15080749	          0.79517612	         -0.66819355	         -0.46403410	         -0.58154083	         -2.20224500	          0.17262688	          1.08876526	
          5.39000000	          0.45204286	         -0.87376625	          0.17941512	         -0.58700006	         -0.13995022	          0.79739882	         -0.67163099	         -0.46577513	         -0.57616434	         -2.19649990	          0.18039190	          1.09336535	
          5.40000000	          0.44733864	         -0.87458387	          0.18705934	         -0.58658991	         -0.12902459	          0.79954045	         -0.67512993	         -0.46739246	         -0.57073976	         -2.19074714	          0.18816779	          1.09800108	
          5.41000000	          0.44258063	         -0.87533739	          0.19469680	         -0.58608132	         -0.11803164	          0.80160915	         -0.67869807	         -0.46888484	         -0.56525740	         -2.18497257	          0.19594833	          1.10266962	
          5.42000000	          0.43777508	         -0.87602476	          0.20232053	         -0.58545828	         -0.10697353	          0.80361388	         -0.68234272	         -0.47025236	         -0.55970629	         -2.17916041	          0.20372687	          1.10736545	
          5.43000000	          0.43293078	         -0.87664309	          0.20992338	         -0.58470319	         -0.09585334	          0.80556460	         -0.68607078	         -0.47149658	         -0.55407387	         -2.17329287	          0.21149659	          1.11208027	
          5.44000000	          0.42805921	         -0.87718860	          0.21749822	         -0.58379669	         -0.08467477	          0.80747236	         -0.68988894	         -0.47262072	         -0.54834561	         -2.16734979	          0.21925059	          1.11680285	
          5.45000000	          0.42317448	         -0.87765670	          0.22503797	         -0.58271754	         -0.07344197	          0.80934946	         -0.69380374	         -0.47362960	         -0.54250472	         -2.16130820	          0.22698200	          1.12151905	
          5.46000000	          0.41829329	         -0.87804209	          0.23253561	         -0.58144262	         -0.06215929	          0.81120941	         -0.69782175	         -0.47452957	         -0.53653191	         -2.15514220	          0.23468395	          1.12621187	
          5.47000000	          0.41343473	         -0.87833897	          0.23998415	         -0.57994702	         -0.05083128	          0.81306681	         -0.70194956	         -0.47532814	         -0.53040548	         -2.14882296	          0.24234952	          1.13086171	
          5.48000000	          0.40861984	         -0.87854124	          0.24737649	         -0.57820443	         -0.03946262	          0.81493702	         -0.70619365	         -0.47603361	         -0.52410165	         -2.14231921	          0.24997165	          1.13544679	
          5.49000000	          0.40387118	         -0.87864282	          0.25470546	         -0.57618779	         -0.02805823	          0.81683558	         -0.71056013	         -0.47665452	         -0.51759517	         -2.13559808	          0.25754311	          1.13994367	
          5.50000000	          0.39921214	         -0.87863793	          0.26196383	         -0.57387018	         -0.01662327	          0.81877755	         -0.71505432	         -0.47719917	         -0.51086032	         -2.12862622	          0.26505654	          1.14432800	
          5.51000000	          0.39466624	         -0.87852139	          0.26914444	         -0.57122591	         -0.00516335	          0.82077665	         -0.71968015	         -0.47767511	         -0.50387198	         -2.12137129	          0.27250458	          1.14857526	
          5.52000000	          0.39025637	         -0.87828880	          0.27624038	         -0.56823175	          0.00631544	          0.82284433	         -0.72443954	         -0.47808880	         -0.49660694	         -2.11380354	          0.27988007	          1.15266157	
          5.53000000	          0.38600403	         -0.87793678	          0.28324529	         -0.56486818	          0.01780636	          0.82498901	         -0.72933176	         -0.47844534	         -0.48904523	         -2.10589748	          0.28717629	          1.15656446	
          5.54000000	          0.38192872	         -0.87746302	          0.29015359	         -0.56112063	          0.02930196	          0.82721523	         -0.73435284	         -0.47874842	         -0.48117134	         -2.09763341	          0.29438733	          1.16026357	
          5.55000000	          0.37804718	         -0.87686633	          0.29696088	         -0.55698066	          0.04079402	          0.82952299	         -0.73949501	         -0.47900030	         -0.47297553	         -2.08899898	          0.30150838	          1.16374134	
          5.56000000	          0.37437287	         -0.87614665	          0.30366431	         -0.55244719	          0.05227354	          0.83190719	         -0.74474630	         -0.47920198	         -0.46445496	         -2.07999064	          0.30853623	          1.16698361	
          5.57000000	          0.37091530	         -0.87530491	          0.31026304	         -0.54752762	          0.06373072	          0.83435718	         -0.75009022	         -0.47935343	         -0.45561492	         -2.07061494	          0.31546971	          1.16998022	
          5.58000000	          0.36767961	         -0.87434297	          0.31675870	         -0.54223885	          0.07515517	          0.83685646	         -0.75550561	         -0.47945393	         -0.44646970	         -2.06088971	          0.32231027	          1.17272551	
          5.59000000	          0.36466615	         -0.87326336	          0.32315586	         -0.53660794	          0.08653600	          0.83938278	         -0.76096684	         -0.47950248	         -0.43704330	         -2.05084462	          0.32906238	          1.17521862	
          5.60000000	          0.36187040	         -0.87206908	          0.32946219	         -0.53067218	          0.09786208	          0.84190858	         -0.76644429	         -0.47949822	         -0.42736941	         -2.04052112	          0.33573391	          1.17746360	
          5.61000000	          0.35928317	         -0.87076335	          0.33568853	         -0.52447845	          0.10912238	          0.84440195	         -0.77190541	         -0.47944081	         -0.41749078	         -2.02997147	          0.34233608	          1.17946920	
          5.62000000	          0.35689102	         -0.86934943	          0.34184846	         -0.51808158	          0.12030631	          0.84682812	         -0.77731607	         -0.47933074	         -0.40745769	         -2.01925661	          0.34888316	          1.18124841	
